# Blender 4.1.0
# www.blender.org
o book
v 0.986477 0.175000 -1.396823
v 0.986477 -0.175000 -1.396823
v -1.013523 0.093403 -1.396823
v -0.931927 0.175000 -1.396823
v -0.989624 0.151101 -1.396823
v -0.931927 -0.175000 -1.396823
v -1.013523 -0.093403 -1.396823
v -0.989624 -0.151101 -1.396823
v -0.931927 0.175000 1.403177
v -1.013523 0.093403 1.403177
v -0.989624 0.151101 1.403177
v -1.013523 -0.093403 1.403177
v -0.931927 -0.175000 1.403177
v -0.989624 -0.151101 1.403177
v 0.882391 0.175000 1.403177
v 0.986477 0.175000 1.299091
v 0.986477 -0.175000 1.299091
v 0.882391 -0.175000 1.403177
vn -0.0000 -0.0000 1.0000
vn -0.0000 -1.0000 -0.0000
vn -0.1950 -0.9808 -0.0000
vn -0.1950 0.9808 -0.0000
vn -0.0000 1.0000 -0.0000
vn -0.9808 0.1950 -0.0000
vn -0.9808 -0.1950 -0.0000
vn -0.1952 -0.9808 -0.0000
vn -0.7070 -0.7072 -0.0000
vn -0.7072 -0.7070 -0.0000
vn -0.9808 -0.1952 -0.0000
vn -0.1952 0.9808 -0.0000
vn -0.7070 0.7072 -0.0000
vn -0.7072 0.7070 -0.0000
vn -0.9808 0.1952 -0.0000
vn -0.0000 -0.0000 -1.0000
vn 0.3828 0.0001 0.9238
vn 0.9238 -0.0000 0.3828
vn 0.3828 -0.0000 0.9238
vn 1.0000 -0.0000 -0.0000
vn 0.9239 -0.0000 0.3826
vn 0.3826 -0.0000 0.9239
vn 0.3828 0.0002 0.9238
vt 0.111893 0.588882
vt 0.100273 0.593696
vt 0.095459 0.605316
vt 0.020001 0.029286
vt 0.040962 0.008324
vt 0.406334 0.008324
vt 0.430363 0.008324
vt 0.795734 0.008324
vt 0.816695 0.029286
vt 0.936394 0.008324
vt 0.974016 0.572235
vt 0.974016 0.008324
vt 0.020001 0.008324
vt 0.008323 0.572235
vt 0.020001 0.572235
vt 0.985636 0.008324
vt 0.985636 0.572235
vt 0.809313 0.572235
vt 0.820991 0.008324
vt 0.809313 0.008324
vt 0.924774 0.572235
vt 0.924774 0.008324
vt 0.008324 0.605316
vt 0.008323 0.991676
vt 0.078812 0.991676
vt 0.908127 0.572235
vt 0.837638 0.551273
vt 0.837638 0.572235
vt 0.837638 0.008324
vt 0.908127 0.551273
vt 0.908127 0.008324
vt 0.095459 0.970714
vt 0.165948 0.970714
vt 0.165948 0.605316
vt 0.161135 0.593696
vt 0.149515 0.588882
vt 0.406334 0.572235
vt 0.816695 0.572235
vt 0.430363 0.572235
vt 0.936394 0.572235
vt 0.008323 0.008324
vt 0.820991 0.572235
vt 0.078812 0.605316
vt 0.073999 0.593696
vt 0.062379 0.588882
vt 0.024757 0.588882
vt 0.013137 0.593696
s 0
f 12/1/1 14/2/1 13/3/1
f 17/4/2 18/5/2 13/6/3
f 9/7/4 15/8/5 16/9/5
f 10/10/6 7/11/7 12/12/7
f 13/13/8 8/14/9 6/15/8
f 14/16/10 7/11/11 8/17/10
f 4/18/12 11/19/13 9/20/12
f 5/21/14 10/10/15 11/22/14
f 4/23/16 1/24/16 2/25/16
f 18/26/17 16/27/18 15/28/19
f 1/29/20 17/30/21 2/31/20
f 13/3/1 18/32/22 15/33/22
f 15/33/22 9/34/1 13/3/1
f 9/34/1 11/35/1 10/36/1
f 13/3/1 9/34/1 12/1/1
f 10/36/1 12/1/1 9/34/1
f 13/6/3 6/37/3 17/4/2
f 6/37/3 2/15/2 17/4/2
f 16/9/5 1/38/5 4/39/4
f 4/39/4 9/7/4 16/9/5
f 10/10/6 3/40/6 7/11/7
f 13/13/8 14/41/9 8/14/9
f 14/16/10 12/12/11 7/11/11
f 4/18/12 5/42/13 11/19/13
f 5/21/14 3/40/15 10/10/15
f 2/25/16 6/43/16 4/23/16
f 6/43/16 8/44/16 7/45/16
f 4/23/16 6/43/16 3/46/16
f 7/45/16 3/46/16 6/43/16
f 3/46/16 5/47/16 4/23/16
f 18/26/23 17/30/18 16/27/18
f 1/29/20 16/27/21 17/30/21
